<mxfile host="Electron" modified="2024-03-14T09:47:55.630Z" agent="Mozilla/5.0 (Windows NT 10.0; Win64; x64) AppleWebKit/537.36 (KHTML, like Gecko) draw.io/21.4.0 Chrome/112.0.5615.204 Electron/24.5.1 Safari/537.36" etag="26lkxkRr8v6WuJUURYfx" version="21.4.0" type="device">
  <diagram id="9kUjLdXwX5VqoD8rsrzN" name="默认">
    <mxGraphModel dx="330" dy="189" grid="1" gridSize="10" guides="1" tooltips="1" connect="1" arrows="1" fold="1" page="1" pageScale="1" pageWidth="4681" pageHeight="3300" math="1" shadow="0">
      <root>
        <mxCell id="0" />
        <mxCell id="1" parent="0" />
        <mxCell id="oZ9e9wvJQdR3m-bEu49n-1" value="" style="endArrow=none;html=1;rounded=0;entryX=1;entryY=0;entryDx=0;entryDy=0;fontFamily=Times New Roman;fontSize=8;" parent="1" target="oZ9e9wvJQdR3m-bEu49n-13" edge="1">
          <mxGeometry width="50" height="50" relative="1" as="geometry">
            <mxPoint x="560" y="560" as="sourcePoint" />
            <mxPoint x="560" y="440" as="targetPoint" />
          </mxGeometry>
        </mxCell>
        <mxCell id="oZ9e9wvJQdR3m-bEu49n-2" value="" style="endArrow=none;html=1;rounded=0;fontFamily=Times New Roman;fontSize=8;" parent="1" edge="1">
          <mxGeometry width="50" height="50" relative="1" as="geometry">
            <mxPoint x="560" y="560" as="sourcePoint" />
            <mxPoint x="660" y="560" as="targetPoint" />
          </mxGeometry>
        </mxCell>
        <mxCell id="oZ9e9wvJQdR3m-bEu49n-3" value="&lt;font style=&quot;font-size: 8px;&quot;&gt;$$y_1$$&lt;/font&gt;" style="text;html=1;strokeColor=none;fillColor=none;align=center;verticalAlign=middle;whiteSpace=wrap;rounded=0;fontFamily=Times New Roman;fontSize=8;" parent="1" vertex="1">
          <mxGeometry x="540" y="530" width="20" height="10" as="geometry" />
        </mxCell>
        <mxCell id="oZ9e9wvJQdR3m-bEu49n-4" value="" style="endArrow=none;html=1;rounded=0;dashed=1;dashPattern=1 1;jumpSize=6;startSize=6;strokeWidth=0.4;entryX=1;entryY=1;entryDx=0;entryDy=0;fontFamily=Times New Roman;fontSize=8;" parent="1" target="oZ9e9wvJQdR3m-bEu49n-21" edge="1">
          <mxGeometry width="50" height="50" relative="1" as="geometry">
            <mxPoint x="560" y="540" as="sourcePoint" />
            <mxPoint x="680" y="540" as="targetPoint" />
          </mxGeometry>
        </mxCell>
        <mxCell id="oZ9e9wvJQdR3m-bEu49n-5" value="" style="endArrow=none;html=1;rounded=0;dashed=1;dashPattern=1 1;jumpSize=6;startSize=6;strokeWidth=0.4;exitX=0;exitY=0;exitDx=0;exitDy=0;fontFamily=Times New Roman;fontSize=8;" parent="1" source="oZ9e9wvJQdR3m-bEu49n-15" edge="1">
          <mxGeometry width="50" height="50" relative="1" as="geometry">
            <mxPoint x="580" y="450" as="sourcePoint" />
            <mxPoint x="580" y="560.5769230769231" as="targetPoint" />
          </mxGeometry>
        </mxCell>
        <mxCell id="oZ9e9wvJQdR3m-bEu49n-9" value="" style="endArrow=none;html=1;rounded=0;dashed=1;dashPattern=1 1;jumpSize=6;startSize=6;strokeWidth=0.4;exitX=-0.011;exitY=-0.067;exitDx=0;exitDy=0;exitPerimeter=0;fontFamily=Times New Roman;fontSize=8;" parent="1" source="oZ9e9wvJQdR3m-bEu49n-16" edge="1">
          <mxGeometry width="50" height="50" relative="1" as="geometry">
            <mxPoint x="600" y="450" as="sourcePoint" />
            <mxPoint x="600" y="560.5769230769231" as="targetPoint" />
          </mxGeometry>
        </mxCell>
        <mxCell id="oZ9e9wvJQdR3m-bEu49n-10" value="" style="endArrow=none;html=1;rounded=0;dashed=1;dashPattern=1 1;jumpSize=6;startSize=6;strokeWidth=0.4;fontFamily=Times New Roman;fontSize=8;" parent="1" edge="1">
          <mxGeometry width="50" height="50" relative="1" as="geometry">
            <mxPoint x="660" y="500" as="sourcePoint" />
            <mxPoint x="560" y="500" as="targetPoint" />
          </mxGeometry>
        </mxCell>
        <mxCell id="oZ9e9wvJQdR3m-bEu49n-11" value="&lt;font style=&quot;font-size: 8px;&quot;&gt;$$y$$&lt;/font&gt;" style="text;html=1;strokeColor=none;fillColor=none;align=center;verticalAlign=middle;whiteSpace=wrap;rounded=0;fontFamily=Times New Roman;fontSize=8;" parent="1" vertex="1">
          <mxGeometry x="540" y="490" width="20" height="10" as="geometry" />
        </mxCell>
        <mxCell id="oZ9e9wvJQdR3m-bEu49n-12" value="" style="endArrow=none;html=1;rounded=0;dashed=1;dashPattern=1 1;jumpSize=6;startSize=6;strokeWidth=0.4;exitX=1;exitY=1;exitDx=0;exitDy=0;fontFamily=Times New Roman;fontSize=8;" parent="1" source="oZ9e9wvJQdR3m-bEu49n-20" edge="1">
          <mxGeometry width="50" height="50" relative="1" as="geometry">
            <mxPoint x="680" y="480" as="sourcePoint" />
            <mxPoint x="560" y="480" as="targetPoint" />
          </mxGeometry>
        </mxCell>
        <mxCell id="oZ9e9wvJQdR3m-bEu49n-13" value="&lt;font style=&quot;font-size: 8px;&quot;&gt;$$y_2$$&lt;/font&gt;" style="text;html=1;strokeColor=none;fillColor=none;align=center;verticalAlign=middle;whiteSpace=wrap;rounded=0;fontFamily=Times New Roman;fontSize=8;" parent="1" vertex="1">
          <mxGeometry x="540" y="470" width="20" height="10" as="geometry" />
        </mxCell>
        <mxCell id="oZ9e9wvJQdR3m-bEu49n-14" value="&lt;font style=&quot;font-size: 8px;&quot;&gt;$$Q_{11}$$&lt;/font&gt;" style="text;html=1;strokeColor=none;fillColor=none;align=center;verticalAlign=middle;whiteSpace=wrap;rounded=0;fontFamily=Times New Roman;fontSize=8;" parent="1" vertex="1">
          <mxGeometry x="580" y="530" width="20" height="10" as="geometry" />
        </mxCell>
        <mxCell id="oZ9e9wvJQdR3m-bEu49n-15" value="&lt;font style=&quot;font-size: 8px;&quot;&gt;$$Q_{12}$$&lt;/font&gt;" style="text;html=1;strokeColor=none;fillColor=none;align=center;verticalAlign=middle;whiteSpace=wrap;rounded=0;fontFamily=Times New Roman;fontSize=8;" parent="1" vertex="1">
          <mxGeometry x="580" y="470" width="20" height="10" as="geometry" />
        </mxCell>
        <mxCell id="oZ9e9wvJQdR3m-bEu49n-16" value="&lt;font style=&quot;font-size: 8px;&quot;&gt;$$R_{2}$$&lt;/font&gt;" style="text;html=1;strokeColor=none;fillColor=none;align=center;verticalAlign=middle;whiteSpace=wrap;rounded=0;fontFamily=Times New Roman;fontSize=8;" parent="1" vertex="1">
          <mxGeometry x="600" y="470" width="20" height="10" as="geometry" />
        </mxCell>
        <mxCell id="oZ9e9wvJQdR3m-bEu49n-17" value="&lt;font style=&quot;font-size: 8px;&quot;&gt;$$P$$&lt;/font&gt;" style="text;html=1;strokeColor=none;fillColor=none;align=center;verticalAlign=middle;whiteSpace=wrap;rounded=0;fontFamily=Times New Roman;fontSize=8;" parent="1" vertex="1">
          <mxGeometry x="600" y="490" width="20" height="10" as="geometry" />
        </mxCell>
        <mxCell id="oZ9e9wvJQdR3m-bEu49n-18" value="&lt;font style=&quot;font-size: 8px;&quot;&gt;$$R_{1}$$&lt;/font&gt;" style="text;html=1;strokeColor=none;fillColor=none;align=center;verticalAlign=middle;whiteSpace=wrap;rounded=0;fontFamily=Times New Roman;fontSize=8;" parent="1" vertex="1">
          <mxGeometry x="600" y="530" width="20" height="10" as="geometry" />
        </mxCell>
        <mxCell id="oZ9e9wvJQdR3m-bEu49n-19" value="" style="endArrow=none;html=1;rounded=0;dashed=1;dashPattern=1 1;jumpSize=6;startSize=6;strokeWidth=0.4;exitX=0.006;exitY=-0.078;exitDx=0;exitDy=0;exitPerimeter=0;fontFamily=Times New Roman;fontSize=8;" parent="1" source="oZ9e9wvJQdR3m-bEu49n-20" edge="1">
          <mxGeometry width="50" height="50" relative="1" as="geometry">
            <mxPoint x="640" y="450" as="sourcePoint" />
            <mxPoint x="640" y="560.5769230769231" as="targetPoint" />
          </mxGeometry>
        </mxCell>
        <mxCell id="oZ9e9wvJQdR3m-bEu49n-20" value="&lt;font style=&quot;font-size: 8px;&quot;&gt;$$Q_{22}$$&lt;/font&gt;" style="text;html=1;strokeColor=none;fillColor=none;align=center;verticalAlign=middle;whiteSpace=wrap;rounded=0;fontFamily=Times New Roman;fontSize=8;" parent="1" vertex="1">
          <mxGeometry x="640" y="470" width="20" height="10" as="geometry" />
        </mxCell>
        <mxCell id="oZ9e9wvJQdR3m-bEu49n-21" value="&lt;font style=&quot;font-size: 8px;&quot;&gt;$$Q_{21}$$&lt;/font&gt;" style="text;html=1;strokeColor=none;fillColor=none;align=center;verticalAlign=middle;whiteSpace=wrap;rounded=0;fontFamily=Times New Roman;fontSize=8;" parent="1" vertex="1">
          <mxGeometry x="640" y="530" width="20" height="10" as="geometry" />
        </mxCell>
        <mxCell id="oZ9e9wvJQdR3m-bEu49n-25" value="" style="ellipse;whiteSpace=wrap;html=1;fillColor=#000000;fontFamily=Times New Roman;fontSize=8;" parent="1" vertex="1">
          <mxGeometry x="579" y="539" width="2" height="2" as="geometry" />
        </mxCell>
        <mxCell id="oZ9e9wvJQdR3m-bEu49n-26" value="" style="ellipse;whiteSpace=wrap;html=1;fillColor=#000000;fontFamily=Times New Roman;fontSize=8;" parent="1" vertex="1">
          <mxGeometry x="599" y="539" width="2" height="2" as="geometry" />
        </mxCell>
        <mxCell id="oZ9e9wvJQdR3m-bEu49n-27" value="" style="ellipse;whiteSpace=wrap;html=1;fillColor=#000000;fontFamily=Times New Roman;fontSize=8;" parent="1" vertex="1">
          <mxGeometry x="599" y="499" width="2" height="2" as="geometry" />
        </mxCell>
        <mxCell id="oZ9e9wvJQdR3m-bEu49n-28" value="" style="ellipse;whiteSpace=wrap;html=1;fillColor=#000000;fontFamily=Times New Roman;fontSize=8;" parent="1" vertex="1">
          <mxGeometry x="639" y="479" width="2" height="2" as="geometry" />
        </mxCell>
        <mxCell id="oZ9e9wvJQdR3m-bEu49n-29" value="" style="ellipse;whiteSpace=wrap;html=1;fillColor=#000000;fontFamily=Times New Roman;fontSize=8;" parent="1" vertex="1">
          <mxGeometry x="639" y="539" width="2" height="2" as="geometry" />
        </mxCell>
        <mxCell id="oZ9e9wvJQdR3m-bEu49n-31" value="" style="ellipse;whiteSpace=wrap;html=1;fillColor=#000000;fontFamily=Times New Roman;fontSize=8;" parent="1" vertex="1">
          <mxGeometry x="579" y="479" width="2" height="2" as="geometry" />
        </mxCell>
        <mxCell id="oZ9e9wvJQdR3m-bEu49n-32" value="" style="ellipse;whiteSpace=wrap;html=1;fillColor=#000000;fontFamily=Times New Roman;fontSize=8;" parent="1" vertex="1">
          <mxGeometry x="599" y="479" width="2" height="2" as="geometry" />
        </mxCell>
        <mxCell id="oZ9e9wvJQdR3m-bEu49n-33" value="&lt;font style=&quot;font-size: 8px;&quot;&gt;$$x_1$$&lt;/font&gt;" style="text;html=1;strokeColor=none;fillColor=none;align=center;verticalAlign=middle;whiteSpace=wrap;rounded=0;fontFamily=Times New Roman;fontSize=8;" parent="1" vertex="1">
          <mxGeometry x="570" y="560" width="20" height="10" as="geometry" />
        </mxCell>
        <mxCell id="oZ9e9wvJQdR3m-bEu49n-34" value="&lt;font style=&quot;font-size: 8px;&quot;&gt;$$x$$&lt;/font&gt;" style="text;html=1;strokeColor=none;fillColor=none;align=center;verticalAlign=middle;whiteSpace=wrap;rounded=0;fontFamily=Times New Roman;fontSize=8;" parent="1" vertex="1">
          <mxGeometry x="590" y="560" width="20" height="10" as="geometry" />
        </mxCell>
        <mxCell id="oZ9e9wvJQdR3m-bEu49n-35" value="&lt;font style=&quot;font-size: 8px;&quot;&gt;$$x_2$$&lt;/font&gt;" style="text;html=1;strokeColor=none;fillColor=none;align=center;verticalAlign=middle;whiteSpace=wrap;rounded=0;fontFamily=Times New Roman;fontSize=8;" parent="1" vertex="1">
          <mxGeometry x="630" y="560" width="20" height="10" as="geometry" />
        </mxCell>
      </root>
    </mxGraphModel>
  </diagram>
</mxfile>
